<?xml version="1.0" encoding="iso-8859-1"?>
<!-- Generator: Adobe Illustrator 19.0.0, SVG Export Plug-In . SVG Version: 6.00 Build 0)  -->
<svg version="1.1" id="Capa_1" xmlns="http://www.w3.org/2000/svg" xmlns:xlink="http://www.w3.org/1999/xlink" x="0px" y="0px"
	 viewBox="0 0 64 64" style="enable-background:new 0 0 64 64;" xml:space="preserve">
<g>
	<path d="M21.5,2H64V0H21.5C20.122,0,19,1.122,19,2.5c0,0.565,0.195,1.081,0.513,1.5C19.195,4.419,19,4.935,19,5.5
		s0.195,1.081,0.513,1.5C19.195,7.419,19,7.935,19,8.5c0,1.378,1.122,2.5,2.5,2.5h6.575C27.368,12.282,27,13.695,27,15.17
		c0,2.828,1.31,5.439,3.593,7.165c0.147,0.111,0.304,0.197,0.466,0.268C30.393,23.57,30,24.739,30,26c0,1.093,0.299,2.116,0.812,3
		H24c0-4.962-4.038-9-9-9c-0.552,0-1,0.448-1,1v8.045C8.401,29.552,4,34.271,4,40H3c-1.654,0-3,1.346-3,3v4c0,1.654,1.346,3,3,3
		h1.045C4.522,55.27,8.73,59.478,14,59.955V61c0,1.654,1.346,3,3,3h4c1.654,0,3-1.346,3-3v-1h16v1c0,1.654,1.346,3,3,3h4
		c1.654,0,3-1.346,3-3v-1.045C55.599,59.448,60,54.729,60,49v-9c0-2.16-0.635-4.17-1.714-5.872l3.421-3.421l-1.414-1.414
		l-3.24,3.239C55.043,30.366,52.182,29,49,29h-7.812C41.701,28.116,42,27.093,42,26c0-1.261-0.393-2.431-1.06-3.398
		c0.163-0.072,0.321-0.157,0.467-0.267C43.69,20.61,45,17.998,45,15.17c0-1.475-0.368-2.888-1.075-4.17H64V9H42
		c-0.393,0-0.75,0.231-0.912,0.588c-0.162,0.358-0.099,0.778,0.162,1.073C42.411,11.979,43,13.496,43,15.17
		c0,2.195-1.02,4.225-2.798,5.569c-0.06,0.045-0.127,0.067-0.2,0.067c-0.05,0-0.177-0.013-0.268-0.133
		c-0.111-0.146-0.082-0.355,0.065-0.466c1.611-1.217,2.535-3.053,2.535-5.038c0-3.492-2.841-6.333-6.333-6.333
		s-6.334,2.841-6.334,6.333c0,1.984,0.924,3.82,2.535,5.037c0.146,0.111,0.176,0.32,0.065,0.467
		c-0.11,0.147-0.322,0.177-0.467,0.065c-1.78-1.342-2.8-3.372-2.8-5.568c0-1.675,0.589-3.192,1.75-4.509
		c0.26-0.295,0.323-0.715,0.162-1.073C30.749,9.231,30.393,9,30,9h-8.5C21.224,9,21,8.776,21,8.5S21.224,8,21.5,8H37V6H21.5
		C21.224,6,21,5.776,21,5.5S21.224,5,21.5,5H37V3H21.5C21.224,3,21,2.776,21,2.5S21.224,2,21.5,2z M40,26c0,2.206-1.794,4-4,4
		s-4-1.794-4-4s1.794-4,4-4S40,23.794,40,26z M58,40v9c0,4.962-4.038,9-9,9c-0.552,0-1,0.448-1,1v2c0,0.551-0.449,1-1,1h-4
		c-0.551,0-1-0.449-1-1v-2c0-0.552-0.448-1-1-1H23c-0.552,0-1,0.448-1,1v2c0,0.551-0.449,1-1,1h-4c-0.551,0-1-0.449-1-1v-2
		c0-0.552-0.448-1-1-1c-4.962,0-9-4.038-9-9c0-0.552-0.448-1-1-1H3c-0.551,0-1-0.449-1-1v-4c0-0.551,0.449-1,1-1h2
		c0.552,0,1-0.448,1-1v-1c0-4.962,4.038-9,9-9c0.552,0,1-0.448,1-1v-7.929c3.388,0.487,6,3.408,6,6.929v1c0,0.552,0.448,1,1,1h9.69
		c0.95,0.631,2.087,1,3.31,1s2.36-0.369,3.31-1H49C53.962,31,58,35.038,58,40z M31.666,15.17c0-2.39,1.944-4.333,4.334-4.333
		s4.333,1.944,4.333,4.333c0,1.352-0.634,2.606-1.741,3.442c-0.54,0.408-0.845,1.007-0.907,1.633C37.15,20.088,36.586,20,36,20
		s-1.151,0.088-1.686,0.245c-0.062-0.625-0.367-1.225-0.907-1.633C32.301,17.776,31.666,16.522,31.666,15.17z"/>
	<path d="M13,36c-1.654,0-3,1.346-3,3s1.346,3,3,3s3-1.346,3-3S14.654,36,13,36z M13,40c-0.551,0-1-0.449-1-1s0.449-1,1-1
		s1,0.449,1,1S13.551,40,13,40z"/>
	<path d="M30,33c-1.654,0-3,1.346-3,3s1.346,3,3,3h12c1.654,0,3-1.346,3-3s-1.346-3-3-3H30z M43,36c0,0.551-0.449,1-1,1H30
		c-0.551,0-1-0.449-1-1s0.449-1,1-1h12C42.551,35,43,35.449,43,36z"/>
</g>
<g>
</g>
<g>
</g>
<g>
</g>
<g>
</g>
<g>
</g>
<g>
</g>
<g>
</g>
<g>
</g>
<g>
</g>
<g>
</g>
<g>
</g>
<g>
</g>
<g>
</g>
<g>
</g>
<g>
</g>
</svg>
